<svg width="158" height="53" viewBox="0 0 158 53" fill="none" xmlns="http://www.w3.org/2000/svg">
<path d="M51.9906 52.9316C51.8437 52.9316 51.8437 52.9316 51.7034 52.9316C51.5632 52.9316 51.5632 52.9316 51.4229 52.9316C51.2827 52.9316 51.2827 52.9316 51.1424 52.9316C51.089 52.9316 51.0422 52.888 51.0422 52.8445C51.0422 52.6952 51.0422 52.6952 51.0422 52.5521C51.0422 52.409 51.0489 52.409 51.0489 52.2659C51.0489 52.1228 51.0489 52.1228 51.0489 51.9797C51.0489 51.8304 51.0489 51.8304 51.0489 51.6873C51.0489 51.5442 51.0489 51.5442 51.0489 51.4011C51.0489 51.2581 51.0489 51.2581 51.0489 51.115C51.0489 50.9657 51.0489 50.9657 51.0489 50.8226V50.5364C51.0489 50.5302 51.0489 50.5302 51.0422 50.5302C51.0355 50.5302 51.0355 50.5302 51.0355 50.5364C50.9821 50.6733 50.9821 50.6733 50.9287 50.8039C50.8753 50.9408 50.8753 50.9408 50.8218 51.0776C50.7684 51.2145 50.7684 51.2145 50.715 51.3514C50.6615 51.4882 50.6615 51.4882 50.6081 51.6251C50.5614 51.762 50.5547 51.7558 50.5012 51.8926C50.4478 52.0295 50.4478 52.0295 50.4011 52.1664C50.3476 52.3032 50.341 52.3032 50.2942 52.4401C50.2742 52.4899 50.2207 52.5147 50.1673 52.5147C49.9937 52.5147 49.9937 52.521 49.8267 52.521C49.653 52.521 49.653 52.5272 49.4861 52.5272C49.4326 52.5272 49.3725 52.4899 49.3525 52.4401C49.2991 52.3032 49.3057 52.3032 49.2523 52.1664C49.2056 52.0295 49.1989 52.0295 49.1455 51.8926C49.092 51.762 49.0987 51.7558 49.0453 51.6189C48.9918 51.482 48.9852 51.4882 48.9317 51.3514C48.8783 51.2145 48.885 51.2145 48.8316 51.0776C48.7781 50.9408 48.7781 50.9408 48.7247 50.8039C48.6713 50.667 48.6713 50.6733 48.6178 50.5364C48.6112 50.5302 48.6112 50.5302 48.6112 50.5302C48.6045 50.5302 48.6045 50.5302 48.6045 50.5364C48.6045 50.6795 48.6045 50.6795 48.6045 50.8226C48.6045 50.9719 48.6112 50.9719 48.6112 51.115C48.6112 51.2581 48.6045 51.2581 48.6045 51.4011C48.6045 51.5442 48.6045 51.5442 48.6045 51.6873C48.6045 51.8366 48.6045 51.8366 48.6045 51.9797C48.6045 52.1228 48.6045 52.1228 48.6045 52.2659C48.6045 52.409 48.6045 52.409 48.6045 52.5521C48.6045 52.6952 48.6045 52.6952 48.6045 52.8445C48.6045 52.888 48.5644 52.9316 48.511 52.9316C48.3707 52.9316 48.3707 52.9316 48.2305 52.9316C48.0835 52.9316 48.0835 52.9316 47.9433 52.9316C47.803 52.9316 47.803 52.9316 47.6628 52.9316C47.6093 52.9316 47.5759 52.888 47.5759 52.8445C47.5759 52.6952 47.5626 52.6952 47.5626 52.5396C47.5626 52.3903 47.5693 52.3903 47.5693 52.241C47.5693 52.0917 47.5693 52.0917 47.5693 51.9424C47.5693 51.7931 47.5759 51.7931 47.5759 51.6438C47.5759 51.4945 47.5693 51.4945 47.5693 51.3452C47.5693 51.1958 47.5693 51.1958 47.5693 51.0465C47.5693 50.8972 47.5693 50.8972 47.5693 50.7479C47.5693 50.5986 47.5693 50.5986 47.5693 50.4493C47.5693 50.3 47.5693 50.3 47.5693 50.1507C47.5693 49.9951 47.5693 49.9951 47.5693 49.8458C47.5693 49.6965 47.5759 49.6965 47.5759 49.5472C47.5759 49.3979 47.5759 49.3979 47.5759 49.2486C47.5759 49.0993 47.5693 49.0993 47.5693 48.95C47.5693 48.8007 47.5626 48.8007 47.5626 48.6514C47.5626 48.5021 47.5693 48.5021 47.5693 48.3527C47.5693 48.303 47.6093 48.2656 47.6628 48.2656C47.8297 48.2656 47.8297 48.2656 47.99 48.2656C48.157 48.2656 48.157 48.2656 48.3173 48.2656C48.4843 48.2656 48.4843 48.2656 48.6445 48.2656C48.7047 48.2656 48.7514 48.2968 48.7714 48.3465C48.8249 48.4772 48.8249 48.4772 48.8783 48.614C48.9317 48.7447 48.9251 48.7447 48.9785 48.8753C49.0319 49.0122 49.0319 49.0122 49.0853 49.1428C49.1321 49.2735 49.1321 49.2735 49.1855 49.4104C49.239 49.541 49.239 49.541 49.2924 49.6716C49.3458 49.8023 49.3458 49.8023 49.3926 49.9392C49.446 50.0698 49.4527 50.0698 49.4994 50.2004C49.5529 50.3373 49.5529 50.3373 49.6063 50.468C49.653 50.5986 49.653 50.5986 49.7065 50.7355C49.7599 50.8661 49.7599 50.8661 49.8067 50.9968C49.8133 51.003 49.82 51.0092 49.8267 51.0092C49.8334 51.0092 49.84 51.003 49.8467 50.9968C49.8935 50.8661 49.8935 50.8661 49.9469 50.7293C49.9937 50.5986 49.9937 50.5986 50.0471 50.468C50.1005 50.3311 50.1005 50.3373 50.1539 50.2004C50.2074 50.0698 50.2007 50.0698 50.2541 49.9392C50.3076 49.8023 50.3076 49.8085 50.361 49.6716C50.4144 49.541 50.4144 49.541 50.4679 49.4104C50.5213 49.2735 50.5146 49.2735 50.568 49.1428C50.6215 49.0122 50.6215 49.0122 50.6749 48.8753C50.7216 48.7447 50.7283 48.7447 50.7818 48.614C50.8285 48.4834 50.8285 48.4772 50.8819 48.3465C50.902 48.2968 50.9487 48.2656 51.0088 48.2656C51.1691 48.2656 51.1691 48.2656 51.3361 48.2656C51.4964 48.2656 51.4964 48.2594 51.6634 48.2594C51.8236 48.2594 51.8236 48.2656 51.9906 48.2656C52.0374 48.2656 52.0774 48.303 52.0774 48.3527C52.0774 48.5021 52.0774 48.5021 52.0774 48.6514C52.0774 48.8007 52.0841 48.8007 52.0841 48.95C52.0841 49.0993 52.0774 49.0993 52.0774 49.2486C52.0774 49.3979 52.0841 49.3979 52.0841 49.5472C52.0841 49.6965 52.0841 49.6965 52.0841 49.8521C52.0841 50.0014 52.0841 50.0014 52.0841 50.1507C52.0841 50.3 52.0774 50.3 52.0774 50.4493C52.0774 50.5986 52.0841 50.5986 52.0841 50.7479C52.0841 50.8972 52.0774 50.8972 52.0774 51.0465C52.0774 51.1958 52.0841 51.1958 52.0841 51.3452C52.0841 51.4945 52.0841 51.4945 52.0841 51.6438C52.0841 51.7931 52.0841 51.7931 52.0841 51.9424C52.0841 52.0917 52.0841 52.0917 52.0841 52.241C52.0841 52.3903 52.0841 52.3903 52.0841 52.5459C52.0841 52.6952 52.0774 52.6952 52.0774 52.8445C52.0774 52.888 52.0374 52.9316 51.9906 52.9316Z" fill="black"/>
<path d="M20.5763 9.01577C21.6606 8.82358 22.7123 8.88864 23.6879 9.02819C25.6633 9.31061 27.4532 10.0289 29.1161 10.8184L29.1952 10.856L29.1952 10.8561C32.1763 12.2788 34.5154 14.4326 36.5116 16.8747L36.5502 16.9222C36.9225 17.3818 37.2667 17.8677 37.5788 18.2993L37.643 18.3878L37.643 18.3879C38.7521 19.9152 39.5512 21.5854 40.1362 23.3196L40.1639 23.4023L40.1639 23.4024C40.5852 24.6681 40.8881 25.9824 41.0398 27.3304L41.0444 27.3729C41.0635 27.5505 41.0808 27.7686 41.072 28.0073C41.5673 29.247 42.1089 30.4597 42.7108 31.6402L42.7108 31.6402C42.9995 32.2064 43.2658 32.7777 43.5179 33.3473C44.1318 34.7346 44.7806 36.1565 45.3828 37.5851C45.8945 38.7987 46.3569 40.1099 46.5673 41.519L46.5674 41.5192C46.743 42.6963 46.7273 43.9166 46.3849 45.1459L46.3849 45.1459C45.9006 46.8852 44.7866 48.1139 43.2024 48.8329L43.2024 48.8328C41.9918 49.3823 40.7014 49.6403 39.3441 49.5547H39.344C37.2483 49.4225 35.1907 49.0116 33.2001 48.2023L33.1397 48.1775C32.098 47.7469 31.1283 47.159 30.2922 46.347C29.0849 46.982 27.8223 47.488 26.5077 47.8646L26.5074 47.8647C23.3118 48.7789 19.3227 48.4257 16.3199 47.8911L16.232 47.8754L16.1473 47.8471C15.1888 47.5263 14.2617 47.1561 13.3529 46.7533C12.9076 47.046 12.4497 47.267 12.0282 47.4503L12.028 47.4504C11.1649 47.8256 10.1375 48.275 9.00388 48.4556L9.00379 48.4556C7.49309 48.6962 6.00604 48.5326 4.57884 47.961C4.38944 47.8852 4.01712 47.747 3.6795 47.5173L3.62184 47.4778C2.41278 46.6446 1.32911 45.5575 0.713177 44.016L0.713159 44.016C0.293201 42.9649 0.0327993 41.8526 0.0066657 40.6755V40.6755C-0.0333196 38.8726 0.101779 37.0528 0.542652 35.2452C0.965688 33.5106 1.49031 31.812 2.08896 30.1433L2.08898 30.1432C2.64333 28.5982 3.38319 27.1624 4.26589 25.8172C3.18599 24.903 2.33246 23.7372 1.91861 22.2122L1.90485 22.1609C1.61952 21.0839 1.5546 20.0086 1.62163 18.9565C1.69859 17.7464 1.91146 16.563 2.23895 15.4087C2.48405 14.5446 2.85799 13.7426 3.34924 13.0005L3.3727 12.9652C4.21701 11.7026 5.42048 10.9503 6.90661 10.7285C8.19623 10.5359 9.48502 10.594 10.7585 10.9329L10.8192 10.9492L10.8193 10.9492C11.7353 11.1995 12.6555 11.4946 13.5605 11.8673C15.6883 10.4084 18.0366 9.46594 20.5763 9.01577Z" fill="#231F20"/>
<path d="M33.461 13.0614L110.934 0.0229179C111.743 -0.113086 112.527 0.368072 112.776 1.15183L117.794 16.9874C118.099 17.9497 117.48 18.959 116.487 19.1198L62.8994 27.7965H156.354C157.263 27.7965 158 28.5364 158 29.4491V43.7041C158 44.6168 157.263 45.3567 156.354 45.3567H40.7086C39.7992 45.3567 39.0621 44.6168 39.0621 43.7041V31.6561L38.4869 31.7492C37.6671 31.882 36.8772 31.3813 36.6443 30.5813L32.1529 15.1548C31.8762 14.2046 32.4883 13.2251 33.461 13.0614Z" fill="#231F20"/>
<path d="M45.9001 13.6429C46.195 13.672 46.4719 13.72 46.7489 13.768C47.0447 13.8339 47.3043 13.9192 47.5823 14.0041C47.8423 14.1079 48.1208 14.2112 48.3634 14.3523C48.625 14.5114 48.8319 14.6904 49.0576 14.8874C49.265 15.0848 49.4724 15.2822 49.6441 15.5175C49.7973 15.7533 49.9506 15.989 50.0681 16.2627C50.1851 16.5178 50.248 16.8114 50.3109 17.1049C50.3931 17.4348 50.4391 17.7841 50.4493 18.1712C50.4551 18.3925 50.4431 18.6327 50.4122 18.8549C50.3832 19.1508 50.2991 19.4482 50.2146 19.7272C50.1117 20.0067 49.9899 20.2682 49.8314 20.5307C49.6724 20.7748 49.4951 21.0194 49.2988 21.246C49.1021 21.4541 48.8871 21.6628 48.6343 21.8355C48.3999 22.0078 48.1466 22.1621 47.8745 22.2985C47.6019 22.4164 47.3293 22.5344 47.0374 22.6159C46.7638 22.697 46.4714 22.7601 46.1601 22.8053C45.8856 22.8495 45.5733 22.8578 45.2794 22.8656C44.8753 22.8763 44.8763 22.9132 44.4906 22.9234C44.1048 22.9337 44.1043 22.9152 43.7002 22.926C43.6268 22.9279 43.5731 22.9847 43.5751 23.0585L43.597 23.8881C43.6081 24.3121 43.6082 24.3121 43.6193 24.7362L43.6631 26.3954C43.6743 26.8195 43.6559 26.82 43.6671 27.244C43.671 27.3915 43.582 27.5045 43.4351 27.5084C43.0494 27.5187 43.0494 27.5187 42.6453 27.5294C42.2596 27.5397 42.2596 27.5397 41.8555 27.5504C41.4697 27.5607 41.4697 27.5607 41.0656 27.5714C40.9187 27.5753 40.8056 27.4676 40.8017 27.3201C40.79 26.8777 40.8084 26.8772 40.7967 26.4347C40.7851 25.9922 40.7667 25.9927 40.755 25.5502C40.7429 25.0893 40.7429 25.0893 40.7312 24.6469C40.7195 24.2044 40.7195 24.2044 40.7079 23.7619L40.6845 22.877C40.6728 22.4345 40.6728 22.4345 40.6612 21.992C40.6495 21.5496 40.6679 21.5491 40.6562 21.1066C40.6445 20.6641 40.6445 20.6641 40.6329 20.2216C40.6212 19.7792 40.6028 19.7797 40.5912 19.3372L40.544 17.5489C40.5323 17.1064 40.5507 17.1059 40.539 16.6634C40.5274 16.221 40.509 16.2214 40.4973 15.779C40.4857 15.3365 40.4857 15.3365 40.474 14.894L40.4507 14.0091C40.4468 13.8616 40.5541 13.748 40.701 13.7441C41.1418 13.7324 41.1413 13.714 41.5638 13.7028C42.0046 13.691 42.0046 13.6911 42.4271 13.6798C42.8679 13.6681 42.8684 13.6866 43.2909 13.6753C43.7317 13.6636 43.7317 13.6636 44.1725 13.6519C44.595 13.6407 44.595 13.6407 45.0358 13.629C45.3297 13.6212 45.6057 13.6323 45.9001 13.6429Z" fill="white"/>
<path d="M17.9997 23.8747C20.5645 23.903 23.0958 24.2475 25.6169 24.6873C26.4443 24.8317 27.2648 25.0108 28.0859 25.187C28.2177 25.2153 28.2465 25.2388 28.1866 25.3853C27.8579 26.1899 27.6224 27.0242 27.4713 27.8805C26.9187 31.0127 26.9139 34.1552 27.311 37.3033C27.3957 37.9743 27.5478 38.634 27.7706 39.2728C28.0439 40.0562 28.3141 40.8402 28.567 41.6305C28.7162 42.0967 28.9048 42.5491 29.1472 42.9757C29.206 43.0791 29.1969 43.1328 29.0978 43.1982C28.8084 43.3894 28.5057 43.5568 28.2012 43.7202C26.4249 44.6736 24.5514 45.3493 22.5383 45.5319C19.8866 45.7724 17.3015 45.4387 14.9225 44.19C12.0263 42.6698 10.1731 40.2416 9.19849 37.1302C8.60881 35.2476 8.46754 33.318 8.66781 31.3593C8.88442 29.2398 9.51015 27.2446 10.4485 25.3383C10.6299 24.9699 10.8695 24.7665 11.2714 24.6641C13.4807 24.1014 15.723 23.8473 17.9997 23.8747Z" fill="#FFE6CF"/>
<path d="M20.3959 37.1523C19.0127 37.1184 17.7159 36.7734 16.5316 36.0428C16.1561 35.8112 15.82 35.5312 15.5585 35.1702C15.393 34.9416 15.2704 34.6929 15.2393 34.4095C15.1779 33.8507 15.4212 33.4396 15.8787 33.1454C16.3118 32.867 16.8019 32.7628 17.3048 32.7417C18.7984 32.6791 20.1894 33.0451 21.4814 33.7932C21.8142 33.9858 22.1099 34.2281 22.3777 34.5053C22.6495 34.7867 22.8139 35.124 22.8564 35.5077C22.9174 36.0574 22.665 36.4629 22.212 36.7503C21.7774 37.0261 21.2864 37.1131 20.7843 37.1509C20.6555 37.1605 20.5254 37.1523 20.3959 37.1523Z" fill="black"/>
<path d="M22.2424 41.7829C21.4696 41.7271 20.7266 41.5993 20.0224 41.3203C19.4601 41.0974 18.9127 41.0953 18.3397 41.2581C17.5402 41.4854 16.7216 41.6489 15.8906 41.5282C15.0843 41.411 14.3121 41.1689 13.7059 40.5708C13.572 40.4386 13.4657 40.2872 13.4155 40.1036C13.3288 39.786 13.3875 39.5001 13.6273 39.2676C13.8668 39.0355 14.1531 38.9853 14.4675 39.082C14.5747 39.115 14.6748 39.1668 14.7587 39.2406C15.4305 39.8314 16.2179 39.9388 17.0656 39.8024C17.4074 39.7474 17.7431 39.6663 18.0769 39.5765C18.8943 39.3568 19.6998 39.3735 20.4916 39.6944C20.9232 39.8693 21.3785 39.9544 21.8336 40.0407C22.252 40.1199 22.6551 40.0767 23.0491 39.9145C23.3067 39.8084 23.555 39.6856 23.795 39.5448C23.9285 39.4663 24.0662 39.3981 24.2166 39.3572C24.6202 39.2478 24.8968 39.3474 25.1126 39.6824C25.3196 40.0037 25.2963 40.3898 25.0503 40.6812C25.0106 40.7282 24.9692 40.7773 24.9192 40.8116C24.1061 41.3707 23.2322 41.7608 22.2424 41.7829Z" fill="black"/>
<path d="M13.6564 29.9117C13.4743 29.7193 13.3015 29.5852 13.1153 29.4669C13.0165 29.4042 12.9146 29.3462 12.8325 29.26C12.6556 29.0746 12.607 28.8177 12.7121 28.6123C12.8223 28.3965 13.0634 28.2811 13.3205 28.3224C13.4953 28.3505 13.646 28.4361 13.7884 28.5344C14.8445 29.263 15.5704 30.2462 15.9934 31.4528C16.2018 32.0473 15.8463 32.4491 15.2226 32.3472C15.1622 32.3374 15.1005 32.3228 15.0452 32.2975C14.0473 31.8419 12.983 31.6394 11.9106 31.4668C11.6855 31.4306 11.461 31.3882 11.2507 31.2941C10.9717 31.1692 10.7801 30.9686 10.7648 30.6515C10.7493 30.3279 10.9212 30.102 11.1929 29.9478C11.453 29.8003 11.7418 29.7688 12.0325 29.7617C12.5636 29.7488 13.091 29.7928 13.6564 29.9117Z" fill="black"/>
<path d="M23.961 25.2568C24.9559 25.2784 25.8472 25.512 26.627 26.0964C26.7809 26.2117 26.9188 26.343 27.0172 26.511C27.2205 26.8584 27.1808 27.2672 26.9181 27.5367C26.6548 27.8067 26.2498 27.8539 25.8971 27.6543C25.8489 27.6271 25.8012 27.5975 25.7583 27.5628C24.9909 26.9417 24.1199 26.8524 23.191 27.061C23.0529 27.0921 22.9163 27.1299 22.7729 27.1303C22.3916 27.1315 22.0767 26.9169 21.961 26.5749C21.8447 26.2316 21.9736 25.8519 22.2826 25.6267C22.4716 25.4891 22.69 25.4245 22.914 25.3784C23.0768 25.3449 23.2412 25.3173 23.4063 25.2989C23.6019 25.2774 23.799 25.2686 23.961 25.2568Z" fill="black"/>
<path d="M15.137 27.2216C14.9856 27.2246 14.8407 27.1875 14.7002 27.1392C13.923 26.8719 13.1967 27.0299 12.4946 27.3922C12.3574 27.463 12.2299 27.5518 12.0814 27.6013C11.687 27.7326 11.2875 27.6091 11.0787 27.2894C10.8698 26.9699 10.9167 26.5539 11.1956 26.256C11.2803 26.1655 11.3753 26.0857 11.4827 26.0236C12.6379 25.3554 13.8529 25.108 15.1601 25.5192C15.3626 25.583 15.5557 25.6638 15.7125 25.8122C15.9757 26.0617 16.0605 26.4083 15.9331 26.7192C15.8057 27.0303 15.4987 27.2239 15.137 27.2216Z" fill="black"/>
<path d="M22.9066 30.2654C22.9073 29.3917 23.6042 28.6887 24.4721 28.6859C25.334 28.6833 26.0353 29.3922 26.0349 30.2658C26.0346 31.1357 25.3311 31.8454 24.468 31.8466C23.6024 31.8477 22.9059 31.1425 22.9066 30.2654Z" fill="black"/>
<path d="M21.6722 11.7885C22.9375 11.7928 24.182 11.9937 25.3722 12.3931C28.0801 13.3017 30.4893 14.7248 32.5211 16.7666C33.6255 17.8764 34.6246 19.0688 35.4985 20.3687C35.5857 20.4984 35.6074 20.5511 35.4261 20.621C34.1894 21.0978 33.2969 21.943 32.7752 23.1735C32.5323 23.7463 32.3538 24.3393 32.223 24.9465C32.1941 25.0806 32.1633 25.1189 32.0197 25.0729C31.0193 24.7528 30.0106 24.4608 28.9873 24.2232C28.8546 24.1924 28.7509 24.1236 28.651 24.0385C26.9027 22.5509 25.1537 21.0641 23.3825 19.6042C21.6246 18.1553 19.8366 16.7467 17.9097 15.5262C17.115 15.0227 16.2919 14.5696 15.4583 14.1352C15.3351 14.071 15.3098 14.0282 15.4398 13.9414C17.1252 12.8169 18.9351 12.0187 20.9686 11.8031C21.0483 11.7946 21.1287 11.7903 21.2089 11.7892C21.3634 11.787 21.5178 11.7885 21.6722 11.7885Z" fill="#CAA34B"/>
</svg>
